<svg xmlns="http://www.w3.org/2000/svg" viewBox="0 0 100 100" width="100" height="100">
  <!-- Fondo circular suave (opcional para redondos) -->
  <circle cx="50" cy="50" r="48" fill="#f7fafc" stroke="#e2e8f0" stroke-width="2"/>
  
  <!-- El Escudo -->
  <path d="M50 15 L25 25 V50 C25 65 50 85 50 85 C50 85 75 65 75 50 V25 L50 15Z" fill="#1a202c" stroke="#1a202c" stroke-width="2"/>
  
  <!-- El Bocadillo de Comentario -->
  <path d="M40 35 H60 C62.2 35 64 36.8 64 39 V51 C64 53.2 62.2 55 60 55 H52 L45 62 V55 H40 C37.8 55 36 53.2 36 51 V39 C36 36.8 37.8 35 40 35Z" fill="#38a169"/>
  
  <!-- Puntos de texto en el comentario (Simplificado) -->
  <circle cx="43" cy="45" r="1.5" fill="white"/>
  <circle cx="50" cy="45" r="1.5" fill="white"/>
  <circle cx="57" cy="45" r="1.5" fill="white"/>
</svg>